<svg xmlns="http://www.w3.org/2000/svg" xmlns:xlink="http://www.w3.org/1999/xlink" width="40px" height="36px" viewBox="0 0 40 36" version="1.1">
                  <title>A7A54618-D024-49F1-8812-EF4B904BFE7C</title>
                  <g id="Propositions" stroke="none" stroke-width="1" fill="none" fill-rule="evenodd">
                    <g id="ACCUEIL" transform="translate(-570.000000, -3874.000000)" fill="#FFFFFF">
                      <g id="Group-6" transform="translate(570.000000, 3874.000000)">
                        <path d="M10.6243884,0 C7.8881316,0 5.15757463,1.07208009 3.09364496,3.21985631 C-1.03316444,7.51352642 -1.02926507,14.3884511 3.09364496,18.6841026 L18.9056062,35.169755 C19.1868466,35.4638675 19.5794333,35.6302744 19.9915192,35.6302744 C20.4016602,35.6302744 20.7942419,35.4638675 21.0774322,35.169755 C26.3547524,29.6803166 31.6280727,24.1888968 36.904893,18.6994584 C41.0317023,14.4057883 41.0317023,7.52888218 36.904893,3.23521207 C32.7780836,-1.05845804 25.9542661,-1.05845804 21.8274067,3.23521207 L19.999369,5.1392279 L18.1556818,3.21975724 C16.0913021,1.07198102 13.3609451,0 10.6249384,0 L10.6243884,0 Z M10.6243884,2.91026426 C12.5520727,2.91026426 14.4738572,3.69390364 15.9837058,5.26316378 L18.9211057,8.31262063 C19.2023461,8.60673307 19.5949327,8.77314003 20.0070187,8.77314003 C20.4171597,8.77314003 20.8097413,8.60673307 21.0929317,8.31262063 L24.0147321,5.27861862 C27.0322293,2.13821601 31.7154698,2.13821601 34.7333669,5.27861862 C37.7512641,8.41902122 37.7508641,13.5157483 34.7333669,16.65625 C29.8194844,21.7682338 24.9132015,26.8841804 19.999369,31.9966595 L5.26537096,16.6408942 C2.24787377,13.4965784 2.24787377,8.40376453 5.26537096,5.26326285 C6.77506952,3.69400271 8.69690404,2.91026426 10.6246884,2.91026426 L10.6243884,2.91026426 Z" id="Icon_heart"></path>
                      </g>
                    </g>
                  </g>
                </svg>
