<svg xmlns="http://www.w3.org/2000/svg" xmlns:xlink="http://www.w3.org/1999/xlink" width="54px" height="30px" viewBox="0 0 54 30" version="1.1">
                  <title>AAC22942-312C-48A7-A9DB-E4C37F53806B</title>
                  <g id="Propositions" stroke="none" stroke-width="1" fill="none" fill-rule="evenodd">
                    <g id="ACCUEIL" transform="translate(-165.000000, -3881.000000)" fill="#FFFFFF">
                      <path d="M181.640777,3881 C182.216777,3881 182.756754,3881.26909 183.096502,3881.7235 L183.096502,3881.7235 L185.177763,3884.52942 L198.822051,3884.52942 L200.903312,3881.72576 C201.243037,3881.27132 201.783037,3881 202.359037,3881 L202.359037,3881 L210.440893,3881 C211.016893,3881 211.559117,3881.27135 211.898864,3881.72576 L211.898864,3881.72576 L218.828721,3891.06997 C218.939249,3891.2201 219,3891.40098 219,3891.58848 L219,3891.58848 L219,3906.58823 C218.997754,3909.02353 216.984,3910.99779 214.5,3911 L214.5,3911 L169.5,3911 C167.016,3910.9978 165.00225,3909.02353 165,3906.58823 L165,3906.58823 L165,3891.87931 C165,3891.51095 165.117003,3891.14917 165.337501,3890.84917 L165.337501,3890.84917 L172.103196,3881.72576 C172.442921,3881.26912 172.982921,3881 173.558921,3881 L173.558921,3881 Z M181.640547,3882.76482 L173.55869,3882.76482 L166.799907,3891.8775 L166.799331,3906.58868 C166.799331,3908.05116 168.007607,3909.23574 169.49933,3909.23574 L169.49933,3909.23574 L185.699331,3909.23574 C187.191056,3909.23574 188.399331,3908.05116 188.399331,3906.58868 L188.399331,3906.58868 L188.399331,3891.87976 L181.640547,3882.76482 Z M217.199908,3893.35308 L190.199907,3893.35308 L190.199907,3906.58868 C190.197655,3906.86221 190.170658,3907.13574 190.116658,3907.40486 C190.100904,3907.49089 190.076153,3907.5703 190.053655,3907.65412 C190.008658,3907.83059 189.954658,3908.00706 189.887156,3908.17692 L189.887156,3908.17692 C189.853408,3908.26515 189.812904,3908.35339 189.772405,3908.44162 C189.695907,3908.60045 189.610405,3908.75265 189.515907,3908.90045 L189.515907,3908.90045 C189.468658,3908.97765 189.423655,3909.05486 189.369655,3909.12765 C189.34491,3909.16295 189.324658,3909.20266 189.299907,3909.23574 L189.299907,3909.23574 L214.499908,3909.23574 C215.991633,3909.23574 217.199908,3908.05116 217.199908,3906.58868 L217.199908,3906.58868 L217.199908,3893.35308 Z M210.442736,3882.76482 L202.358576,3882.76482 L201.048718,3884.52957 L205.499239,3884.52957 C206.502746,3884.53397 207.418483,3885.08541 207.879732,3885.95895 L207.879732,3885.95895 C207.890987,3885.9788 207.904483,3886.00086 207.915732,3886.02512 C207.965234,3886.12439 208.007984,3886.22807 208.041732,3886.33174 C208.066489,3886.40233 208.088987,3886.4641 208.109234,3886.54351 C208.127234,3886.62292 208.140735,3886.70454 208.154236,3886.78616 C208.163234,3886.8391 208.185738,3886.88983 208.185738,3886.94498 C208.192489,3886.98248 208.183486,3887.01336 208.185738,3887.05527 C208.187984,3887.09719 208.199234,3887.13468 208.199234,3887.1766 C208.199234,3887.24718 208.183486,3887.30895 208.176735,3887.38395 C208.169984,3887.46116 208.167738,3887.53395 208.154236,3887.60895 C208.131738,3887.72807 208.102489,3887.84278 208.064236,3887.95748 C208.043984,3888.01483 208.030489,3888.07439 208.007984,3888.13395 C207.958483,3888.25748 207.897732,3888.37881 207.827984,3888.49351 C207.803234,3888.53322 207.782987,3888.58175 207.755984,3888.62145 C207.256477,3889.36704 206.408202,3889.81704 205.499216,3889.82366 L205.499216,3889.82366 L197.11784,3889.82366 L195.810608,3891.58837 L216.987825,3891.58837 L210.442736,3882.76482 Z M194.895459,3889.82364 L189.101705,3889.82364 L189.857705,3890.84057 C190.012955,3891.06335 190.114198,3891.31923 190.154702,3891.58835 L190.154702,3891.58835 L193.799688,3891.58835 C193.799688,3891.40085 193.860439,3891.21996 193.970691,3891.06997 L193.970691,3891.06997 L193.972937,3891.06997 L194.895459,3889.82364 Z M177.599791,3884.52953 C179.091516,3884.52953 180.299791,3885.71412 180.299791,3887.1766 C180.299791,3888.24643 179.642806,3889.21261 178.632559,3889.62291 C177.624559,3890.03102 176.463574,3889.80598 175.689545,3889.04939 C174.917809,3888.29054 174.688307,3887.15231 175.104559,3886.16408 C175.523023,3885.17364 176.508559,3884.52953 177.599791,3884.52953 Z M205.398301,3886.29424 L186.487328,3886.29424 L187.796806,3888.05895 L205.499591,3888.05895 C205.733568,3888.06115 205.960817,3887.96851 206.125069,3887.80527 C206.217321,3887.71704 206.287069,3887.61115 206.334318,3887.49203 C206.361315,3887.37512 206.381568,3887.2538 206.390565,3887.13468 C206.38382,3887.08174 206.374817,3887.02881 206.359069,3886.97807 C206.345568,3886.91189 206.325315,3886.84792 206.298318,3886.78836 L206.298318,3886.78836 L206.287069,3886.77292 C206.095779,3886.47292 205.760553,3886.29203 205.398301,3886.29424 L205.398301,3886.29424 Z M177.944032,3886.36044 C177.6088,3886.22588 177.221797,3886.30088 176.963046,3886.55235 C176.706548,3886.80601 176.630049,3887.18542 176.767298,3887.5141 C176.906806,3887.84498 177.235293,3888.05895 177.599791,3888.05895 C177.838278,3888.05898 178.06778,3887.96635 178.236531,3887.80089 C178.405281,3887.63543 178.49978,3887.41043 178.49978,3887.17661 C178.49978,3886.81926 178.281533,3886.4972 177.944032,3886.36044 Z" id="Icon_construction"></path>
                    </g>
                  </g>
                </svg>
